<svg width="214" height="42" viewBox="0 0 214 42" fill="none" xmlns="http://www.w3.org/2000/svg">
<g clip-path="url(#clip0_122_269)">
<path d="M26.9749 27.864C30.8455 27.864 33.9833 24.7411 33.9833 20.8889C33.9833 17.0367 30.8455 13.9138 26.9749 13.9138C23.1043 13.9138 19.9666 17.0367 19.9666 20.8889C19.9666 24.7411 23.1043 27.864 26.9749 27.864Z" fill="#0084FF"/>
<path d="M47.8905 22.9959C47.1969 29.7167 43.0357 35.9652 37.0859 39.2348C31.1361 42.5043 23.5802 42.6497 17.5209 39.6344C15.2578 38.5082 13.1042 36.8734 12.1186 34.5847C11.2061 32.4414 11.6806 30.5886 12.7392 28.9538C12.9217 28.6995 13.1042 28.4089 13.2867 28.1546C13.5422 27.755 13.8342 27.3917 14.1627 27.0284C14.3452 26.8104 14.5643 26.5925 14.8198 26.4108C16.1338 25.3936 16.7544 25.9749 17.6304 27.2464C20.4046 31.2788 25.9163 33.3132 30.6251 31.7874C36.1004 30.0073 39.6046 23.6862 38.2175 18.1279C37.0129 13.3689 32.6327 10.0267 27.7414 9.69971C25.3688 9.5544 22.9962 10.1357 21.0251 11.4798C18.5795 13.1509 17.3019 15.9119 15.9878 18.4912C15.1118 20.1986 14.1992 21.8334 13.1042 23.3592C12.7392 23.8315 12.4106 24.2674 12.0456 24.7034C10.7316 26.3382 9.16197 27.7913 7.22737 28.9175C5.03726 30.2253 3.06616 30.6249 0.803039 30.6613C0.109503 30.6976 -0.292018 29.862 0.146005 29.3171C1.13156 28.1546 2.11711 26.5925 2.44562 26.1202C3.72319 24.1221 4.59924 21.9061 5.36578 19.69C7.7749 12.9693 9.85551 6.79343 16.3163 2.97894C21.7551 -0.217971 28.581 -0.944541 34.4943 1.30783C42.2327 4.21411 47.489 11.8068 47.927 19.8717C48 20.8889 48 21.9424 47.8905 22.9959Z" fill="white"/>
</g>
<path d="M70.264 14.224C74.896 14.224 78.664 17.968 78.664 22.624C78.664 27.256 74.896 31.024 70.264 31.024C65.608 31.024 61.864 27.256 61.864 22.624C61.864 17.968 65.608 14.224 70.264 14.224ZM70.264 26.128C72.184 26.128 73.768 24.568 73.768 22.624C73.768 20.68 72.184 19.096 70.264 19.096C68.32 19.096 66.736 20.68 66.736 22.624C66.736 24.568 68.32 26.128 70.264 26.128Z" fill="white"/>
<path d="M91.3705 14.224H96.2665V30.976H91.0345L85.3225 22.288V30.976H80.4265V14.224H85.6345L91.3705 22.888V14.224Z" fill="white"/>
<path d="M110.316 17.872H102.924V20.8H110.316V24.472H102.924V27.352H110.316V31.024H98.0281V14.224H110.316V17.872Z" fill="white"/>
<path d="M123.323 14.224H128.219V22.6C128.219 27.256 124.787 31.024 120.131 31.024C115.475 31.024 112.067 27.256 112.067 22.6V14.224H116.963V22.6C116.963 24.544 118.187 26.128 120.131 26.128C122.075 26.128 123.323 24.544 123.323 22.6V14.224Z" fill="white"/>
<path d="M143.221 16.072C144.253 17.152 144.805 18.616 144.805 20.152C144.805 21.688 144.253 23.152 143.221 24.232C142.117 25.408 140.533 26.08 138.757 26.104H134.869V31.024H129.973V14.2H138.757C140.533 14.224 142.117 14.896 143.221 16.072ZM138.661 21.64C140.173 21.64 140.341 20.608 140.341 20.152C140.341 19.72 140.173 18.664 138.661 18.664H134.869V21.64H138.661Z" fill="white"/>
<path d="M151.463 26.68H158.207V30.976H146.567V14.224H151.463V26.68Z" fill="white"/>
<path d="M189.594 14.224L195.858 31.024H190.938L190.05 28.576H183.57L182.658 31.024H177.762L184.026 14.224H189.594ZM185.01 24.712H188.586L186.81 19.912L185.01 24.712Z" fill="white"/>
<path d="M205.846 14.2C210.238 14.488 213.718 18.136 213.718 22.624C213.718 27.088 210.238 30.736 205.846 31.024H197.614V14.2H205.846ZM205.846 26.104C207.526 25.84 208.822 24.376 208.822 22.624C208.822 20.848 207.526 19.384 205.846 19.12H202.51V26.104H205.846Z" fill="white"/>
<path d="M168.5 31C173.194 31 177 27.1944 177 22.5C177 17.8056 173.194 14 168.5 14C163.806 14 160 17.8056 160 22.5C160 27.1944 163.806 31 168.5 31Z" fill="#0084FF"/>
<defs>
<clipPath id="clip0_122_269">
<rect width="48" height="41.7778" fill="white"/>
</clipPath>
</defs>
</svg>
